HIERARCHY
ROOT Hips
{
	OFFSET 1.546620 89.095070 2.466652
	CHANNELS 6 Xposition Yposition Zposition Zrotation Yrotation Xrotation 
	JOINT Spine
	{
		OFFSET 0.000000 8.814246 -2.080107
		CHANNELS 3 Zrotation Yrotation Xrotation
		JOINT Spine1
		{
			OFFSET 0.000000 8.844141 0.000000
			CHANNELS 3 Zrotation Yrotation Xrotation
			JOINT Spine2
			{
				OFFSET -0.000000 11.682268 -0.000000
				CHANNELS 3 Zrotation Yrotation Xrotation
				JOINT Spine3
				{
					OFFSET -0.000000 11.746700 -0.000000
					CHANNELS 3 Zrotation Yrotation Xrotation
					JOINT Neck
					{
						OFFSET 0.000000 17.658264 -0.000000
						CHANNELS 3 Zrotation Yrotation Xrotation
						JOINT Neck1
						{
							OFFSET 0.000000 5.101515 0.000000
							CHANNELS 3 Zrotation Yrotation Xrotation
							JOINT Head
							{
								OFFSET -0.000000 5.101515 -0.000000
								CHANNELS 3 Zrotation Yrotation Xrotation
								JOINT HeadEnd
								{
									OFFSET 0.000000 11.655085 -0.000000
									CHANNELS 3 Zrotation Yrotation Xrotation
									End Site
									{
										OFFSET 0.000000 0.000000 0.000000
									}
								}
							}
						}
					}
					JOINT RightShoulder
					{
						OFFSET -2.625389 11.175210 -0.000000
						CHANNELS 3 Zrotation Yrotation Xrotation
						JOINT RightArm
						{
							OFFSET -0.000000 10.434715 0.000000
							CHANNELS 3 Zrotation Yrotation Xrotation
							JOINT RightForeArm
							{
								OFFSET 0.000000 29.628420 0.000000
								CHANNELS 3 Zrotation Yrotation Xrotation
								JOINT RightHand
								{
									OFFSET 0.000000 22.857611 0.000000
									CHANNELS 3 Zrotation Yrotation Xrotation
									JOINT RightHandThumb1
									{
										OFFSET -2.867323 3.959563 2.944291
										CHANNELS 3 Zrotation Yrotation Xrotation
										JOINT RightHandThumb2
										{
											OFFSET -0.000000 3.350399 0.000000
											CHANNELS 3 Zrotation Yrotation Xrotation
											JOINT RightHandThumb3
											{
												OFFSET -0.000000 3.756509 0.000000
												CHANNELS 3 Zrotation Yrotation Xrotation
												JOINT RightHandThumb4
												{
													OFFSET 0.000000 3.147345 0.000000
													CHANNELS 3 Zrotation Yrotation Xrotation
													End Site
													{
														OFFSET 0.000000 0.000000 0.000000
													}
												}
											}
										}
									}
									JOINT RightHandIndex1
									{
										OFFSET -0.086752 10.030893 2.345280
										CHANNELS 3 Zrotation Yrotation Xrotation
										JOINT RightHandIndex2
										{
											OFFSET 0.000000 4.061090 -0.000000
											CHANNELS 3 Zrotation Yrotation Xrotation
											JOINT RightHandIndex3
											{
												OFFSET -0.000000 3.248873 0.000000
												CHANNELS 3 Zrotation Yrotation Xrotation
												JOINT RightHandIndex4
												{
													OFFSET 0.000000 2.639709 -0.000000
													CHANNELS 3 Zrotation Yrotation Xrotation
													End Site
													{
														OFFSET 0.000000 0.000000 0.000000
													}
												}
											}
										}
									}
									JOINT RightHandMiddle1
									{
										OFFSET 0.104102 9.502952 0.006768
										CHANNELS 3 Zrotation Yrotation Xrotation
										JOINT RightHandMiddle2
										{
											OFFSET 0.000000 4.568727 0.000000
											CHANNELS 3 Zrotation Yrotation Xrotation
											JOINT RightHandMiddle3
											{
												OFFSET 0.000000 3.654981 -0.000000
												CHANNELS 3 Zrotation Yrotation Xrotation
												JOINT RightHandMiddle4
												{
													OFFSET -0.000000 2.741236 0.000000
													CHANNELS 3 Zrotation Yrotation Xrotation
													End Site
													{
														OFFSET 0.000000 0.000000 0.000000
													}
												}
											}
										}
									}
									JOINT RightHandRing1
									{
										OFFSET 0.086752 8.921708 -2.267442
										CHANNELS 3 Zrotation Yrotation Xrotation
										JOINT RightHandRing2
										{
											OFFSET -0.000000 4.061090 0.000000
											CHANNELS 3 Zrotation Yrotation Xrotation
											JOINT RightHandRing3
											{
												OFFSET -0.000000 3.654981 0.000000
												CHANNELS 3 Zrotation Yrotation Xrotation
												JOINT RightHandRing4
												{
													OFFSET -0.000000 2.741236 0.000000
													CHANNELS 3 Zrotation Yrotation Xrotation
													End Site
													{
														OFFSET 0.000000 0.000000 0.000000
													}
												}
											}
										}
									}
									JOINT RightHandPinky1
									{
										OFFSET -0.173504 7.976997 -4.467199
										CHANNELS 3 Zrotation Yrotation Xrotation
										JOINT RightHandPinky2
										{
											OFFSET -0.000000 3.350399 0.000000
											CHANNELS 3 Zrotation Yrotation Xrotation
											JOINT RightHandPinky3
											{
												OFFSET -0.000000 2.842763 0.000000
												CHANNELS 3 Zrotation Yrotation Xrotation
												JOINT RightHandPinky4
												{
													OFFSET 0.000000 2.639709 -0.000000
													CHANNELS 3 Zrotation Yrotation Xrotation
													End Site
													{
														OFFSET 0.000000 0.000000 0.000000
													}
												}
											}
										}
									}
									JOINT RightForeArmEnd
									{
										OFFSET 0.000000 0.000000 0.000000
										CHANNELS 3 Zrotation Yrotation Xrotation
										End Site
										{
											OFFSET 0.000000 0.000000 0.000000
										}
									}
								}
								JOINT RightArmEnd
								{
									OFFSET 0.000000 0.000000 0.000000
									CHANNELS 3 Zrotation Yrotation Xrotation
									End Site
									{
										OFFSET 0.000000 0.000000 0.000000
									}
								}
							}
						}
					}
					JOINT LeftShoulder
					{
						OFFSET 2.625389 11.175210 0.000000
						CHANNELS 3 Zrotation Yrotation Xrotation
						JOINT LeftArm
						{
							OFFSET -0.000000 10.813635 -0.000000
							CHANNELS 3 Zrotation Yrotation Xrotation
							JOINT LeftForeArm
							{
								OFFSET 0.000000 28.724781 0.000000
								CHANNELS 3 Zrotation Yrotation Xrotation
								JOINT LeftHand
								{
									OFFSET 0.644384 25.716167 -0.328871
									CHANNELS 3 Zrotation Yrotation Xrotation
									JOINT LeftHandThumb1
									{
										OFFSET 2.867323 3.959563 2.944291
										CHANNELS 3 Zrotation Yrotation Xrotation
										JOINT LeftHandThumb2
										{
											OFFSET 0.000000 3.350399 -0.000000
											CHANNELS 3 Zrotation Yrotation Xrotation
											JOINT LeftHandThumb3
											{
												OFFSET 0.000000 3.756509 0.000000
												CHANNELS 3 Zrotation Yrotation Xrotation
												JOINT LeftHandThumb4
												{
													OFFSET -0.000000 3.100000 0.000000
													CHANNELS 3 Zrotation Yrotation Xrotation
													End Site
													{
														OFFSET 0.000000 0.000000 0.000000
													}
												}
											}
										}
									}
									JOINT LeftHandIndex1
									{
										OFFSET 0.086752 10.030893 2.345280
										CHANNELS 3 Zrotation Yrotation Xrotation
										JOINT LeftHandIndex2
										{
											OFFSET -0.000000 4.061090 0.000000
											CHANNELS 3 Zrotation Yrotation Xrotation
											JOINT LeftHandIndex3
											{
												OFFSET 0.000000 3.248873 0.000000
												CHANNELS 3 Zrotation Yrotation Xrotation
												JOINT LeftHandIndex4
												{
													OFFSET -0.000000 2.639709 -0.000000
													CHANNELS 3 Zrotation Yrotation Xrotation
													End Site
													{
														OFFSET 0.000000 0.000000 0.000000
													}
												}
											}
										}
									}
									JOINT LeftHandMiddle1
									{
										OFFSET -0.104102 9.502952 0.006768
										CHANNELS 3 Zrotation Yrotation Xrotation
										JOINT LeftHandMiddle2
										{
											OFFSET -0.000000 4.568727 -0.000000
											CHANNELS 3 Zrotation Yrotation Xrotation
											JOINT LeftHandMiddle3
											{
												OFFSET 0.000000 3.654981 0.000000
												CHANNELS 3 Zrotation Yrotation Xrotation
												JOINT LeftHandMiddle4
												{
													OFFSET 0.000000 2.741236 0.000000
													CHANNELS 3 Zrotation Yrotation Xrotation
													End Site
													{
														OFFSET 0.000000 0.000000 0.000000
													}
												}
											}
										}
									}
									JOINT LeftHandRing1
									{
										OFFSET -0.086752 8.921708 -2.267442
										CHANNELS 3 Zrotation Yrotation Xrotation
										JOINT LeftHandRing2
										{
											OFFSET 0.000000 4.061090 0.000000
											CHANNELS 3 Zrotation Yrotation Xrotation
											JOINT LeftHandRing3
											{
												OFFSET 0.000000 3.654981 0.000000
												CHANNELS 3 Zrotation Yrotation Xrotation
												JOINT LeftHandRing4
												{
													OFFSET -0.000000 2.741236 0.000000
													CHANNELS 3 Zrotation Yrotation Xrotation
													End Site
													{
														OFFSET 0.000000 0.000000 0.000000
													}
												}
											}
										}
									}
									JOINT LeftHandPinky1
									{
										OFFSET 0.173504 7.976997 -4.467199
										CHANNELS 3 Zrotation Yrotation Xrotation
										JOINT LeftHandPinky2
										{
											OFFSET -0.000000 3.350399 -0.000000
											CHANNELS 3 Zrotation Yrotation Xrotation
											JOINT LeftHandPinky3
											{
												OFFSET -0.000000 2.842763 0.000000
												CHANNELS 3 Zrotation Yrotation Xrotation
												JOINT LeftHandPinky4
												{
													OFFSET 0.000000 2.639709 0.000000
													CHANNELS 3 Zrotation Yrotation Xrotation
													End Site
													{
														OFFSET 0.000000 0.000000 0.000000
													}
												}
											}
										}
									}
									JOINT LeftForeArmEnd
									{
										OFFSET 0.000000 0.000000 0.000000
										CHANNELS 3 Zrotation Yrotation Xrotation
										End Site
										{
											OFFSET 0.000000 0.000000 0.000000
										}
									}
								}
								JOINT LeftArmEnd
								{
									OFFSET 0.000000 0.000000 0.000000
									CHANNELS 3 Zrotation Yrotation Xrotation
									End Site
									{
										OFFSET 0.000000 0.000000 0.000000
									}
								}
							}
						}
					}
				}
			}
		}
	}
	JOINT RightUpLeg
	{
		OFFSET -11.289943 -0.000000 -0.000000
		CHANNELS 3 Zrotation Yrotation Xrotation
		JOINT RightLeg
		{
			OFFSET 0.000000 -38.200325 0.000000
			CHANNELS 3 Zrotation Yrotation Xrotation
			JOINT RightFoot
			{
				OFFSET 0.000000 -39.900856 -0.000000
				CHANNELS 3 Zrotation Yrotation Xrotation
				JOINT RightToeBase
				{
					OFFSET 0.000000 0.000000 15.261641
					CHANNELS 3 Zrotation Yrotation Xrotation
					JOINT RightToeBaseEnd
					{
						OFFSET -0.000000 -0.000000 7.370709
						CHANNELS 3 Zrotation Yrotation Xrotation
						End Site
						{
							OFFSET 0.000000 0.000000 0.000000
						}
					}
				}
				JOINT RightLegEnd
				{
					OFFSET 0.000000 0.000000 0.000000
					CHANNELS 3 Zrotation Yrotation Xrotation
					End Site
					{
						OFFSET 0.000000 0.000000 0.000000
					}
				}
			}
			JOINT RightUpLegEnd
			{
				OFFSET 0.000000 0.000000 0.000000
				CHANNELS 3 Zrotation Yrotation Xrotation
				End Site
				{
					OFFSET 0.000000 0.000000 0.000000
				}
			}
		}
	}
	JOINT LeftUpLeg
	{
		OFFSET 11.315661 -0.000000 0.000000
		CHANNELS 3 Zrotation Yrotation Xrotation
		JOINT LeftLeg
		{
			OFFSET -0.000000 -38.200325 -0.000000
			CHANNELS 3 Zrotation Yrotation Xrotation
			JOINT LeftFoot
			{
				OFFSET 0.000000 -39.900856 -0.000000
				CHANNELS 3 Zrotation Yrotation Xrotation
				JOINT LeftToeBase
				{
					OFFSET 0.000000 0.000000 15.261641
					CHANNELS 3 Zrotation Yrotation Xrotation
					JOINT LeftToeBaseEnd
					{
						OFFSET 0.000000 -0.000000 7.539996
						CHANNELS 3 Zrotation Yrotation Xrotation
						End Site
						{
							OFFSET 0.000000 0.000000 0.000000
						}
					}
				}
				JOINT LeftLegEnd
				{
					OFFSET 0.000000 0.000000 0.000000
					CHANNELS 3 Zrotation Yrotation Xrotation
					End Site
					{
						OFFSET 0.000000 0.000000 0.000000
					}
				}
			}
			JOINT LeftUpLegEnd
			{
				OFFSET 0.000000 0.000000 0.000000
				CHANNELS 3 Zrotation Yrotation Xrotation
				End Site
				{
					OFFSET 0.000000 0.000000 0.000000
				}
			}
		}
	}
}
MOTION
Frames: 4
Frame Time: 0.016667
1.546620 89.095070 2.466652 0.098902 0.013389 -7.709519 3.583991 -0.581735 6.937027 0.949135 -0.296773 5.146079 -1.190454 -2.737195 2.604040 -2.262326 -0.940582 4.737741 1.713145 -0.607361 7.071488 -0.159179 0.094488 -2.306019 -0.776953 -0.644572 -19.254036 0.000000 0.000000 0.000000 85.496620 0.160438 9.204024 53.122116 -23.211012 7.623705 0.078716 16.359449 40.765839 3.921885 2.404911 -2.842086 19.441759 -2.037400 36.464596 -0.000006 0.000041 -46.377148 0.000023 0.000030 -32.030643 -0.000001 -0.000019 -0.000023 55.705639 0.084458 -8.920159 38.306274 0.014969 0.223798 38.470791 0.031860 0.167227 -0.000012 0.000024 -0.000028 53.209469 0.022814 -6.570042 36.245918 -0.022877 0.099567 36.678471 0.017969 0.079755 0.000023 0.000106 -0.000013 53.710064 -0.059078 -2.285609 36.793385 0.135833 -0.262271 37.018501 0.055302 -0.162652 -0.000025 0.000670 0.000015 52.125580 -0.157930 1.163461 35.288429 0.393438 -0.890871 35.298855 0.229216 -0.520293 -0.000275 -0.000007 -0.000023 0.000000 0.000000 0.000000 0.000000 0.000000 0.000000 -84.201736 -0.397790 6.849410 -59.244793 16.323992 6.849791 -0.497741 -11.835017 49.788738 14.349515 -7.166881 -13.335667 -25.256681 1.707125 33.648220 0.000009 0.000036 -62.736118 -0.000061 -0.000000 -43.678658 0.000231 -0.000028 -0.001428 -84.858459 0.083347 -11.387897 -59.421230 0.153282 0.562572 -59.356068 0.204241 0.446764 0.000023 0.000037 0.000015 -83.109283 0.040215 -5.748730 -58.416855 0.036658 0.185723 -58.290203 0.046642 0.143594 -0.000504 -0.000055 0.000019 -86.252747 -0.049152 1.222059 -60.965130 -0.067395 -0.330644 -60.875881 -0.076719 -0.220906 0.001296 0.000013 0.000010 -85.778412 -0.180979 9.746017 -59.664471 -0.289374 -0.826429 -59.843220 -0.268822 -0.566835 -0.000643 -0.000010 -0.000048 0.000000 0.000000 0.000000 0.000000 0.000000 0.000000 0.819550 -11.787913 6.030402 -0.035947 -0.563372 8.013210 -4.225780 -11.795049 19.336105 -0.567966 0.795206 -20.379599 0.000000 0.000000 0.000000 0.000000 0.000000 0.000000 0.000000 0.000000 0.000000 8.791160 -6.796563 0.031129 0.256899 0.804982 15.666991 -3.221386 4.470880 23.861404 0.448970 -0.511043 -25.457525 0.000000 0.000000 0.000000 0.000000 0.000000 0.000000 0.000000 0.000000 0.000000 
1.565184 88.848503 2.354132 -0.600204 -0.237247 -7.486246 4.204305 -0.936036 6.682363 1.660389 -0.531312 5.355057 -2.004391 -2.291933 2.003666 -1.284391 -1.102692 3.952771 0.461873 0.108596 5.364770 -0.227073 0.824920 -2.310502 -1.078489 -1.154165 -16.615297 0.000000 0.000000 0.000000 87.145271 0.732573 9.960765 54.141491 -25.403454 3.512605 -0.016797 19.151705 42.220005 3.492738 7.247315 -4.074216 19.296247 -2.153271 36.366707 -0.000003 0.000026 -46.022125 0.000014 0.000039 -32.020008 0.000007 0.000000 -0.000037 53.409279 0.048749 -8.673216 36.979935 -0.155812 0.688381 37.082565 -0.133555 0.555991 -0.000010 0.000034 -0.000040 50.979961 0.011425 -7.286432 35.190899 -0.082902 0.270204 35.454769 -0.044787 0.204969 0.000023 -0.000011 -0.000016 51.735870 -0.015842 -4.276133 35.777252 0.210933 -0.440504 35.956593 0.114928 -0.314846 -0.000026 0.000663 0.000000 50.976749 0.029437 -2.198593 34.861336 0.601220 -1.369229 34.772472 0.396643 -1.040503 0.000243 -0.000002 0.000006 0.000000 0.000000 0.000000 0.000000 0.000000 0.000000 -84.902939 -1.065225 8.287017 -60.253105 16.249392 2.880388 -1.298807 -11.753098 48.683216 15.723699 -8.142511 -11.055615 -24.444923 1.722284 34.309177 -0.000005 0.000028 -59.736160 0.000098 -0.000012 -41.699242 -0.001268 -0.000002 -0.000887 -80.767204 0.054853 -10.038416 -56.126633 0.113080 0.491936 -56.183372 0.143703 0.383026 0.000041 0.000666 0.000020 -79.271309 0.032062 -5.303635 -55.456070 0.020913 0.158644 -55.354195 0.030286 0.124783 -0.000244 -0.000051 -0.000063 -83.984512 -0.021800 1.290326 -58.744419 -0.040058 -0.266737 -58.642193 -0.049448 -0.158554 -0.000854 0.000003 0.000009 -84.232903 0.039815 8.599740 -57.952286 -0.149835 -0.646639 -58.003376 -0.180812 -0.459579 -0.000259 -0.000008 -0.000045 0.000000 0.000000 0.000000 0.000000 0.000000 0.000000 1.373287 -12.123593 6.189285 0.022546 -0.275592 7.394643 -5.313673 -9.317822 20.113489 -0.448535 0.600647 -19.342909 0.000000 0.000000 0.000000 0.000000 0.000000 0.000000 0.000000 0.000000 0.000000 9.185885 -4.051379 -1.727384 0.339577 0.909080 16.586653 -4.086357 1.879639 24.456152 0.496194 -0.737739 -25.109840 0.000000 0.000000 0.000000 0.000000 0.000000 0.000000 0.000000 0.000000 0.000000 
1.552268 88.830833 2.424631 -0.454925 -0.301432 -7.631458 4.172873 -0.926270 6.806152 1.535262 -0.500675 5.132128 -2.010757 -2.445257 2.117042 -1.251961 -1.186520 3.999562 0.195761 0.246752 5.171765 -0.153122 0.856097 -2.394029 -1.126763 -1.238054 -16.642447 0.000000 0.000000 0.000000 87.046272 0.743457 10.000921 54.856876 -25.811802 3.023436 -0.021610 19.241348 41.439621 3.109082 8.271733 -3.727525 19.199030 -2.158460 36.404106 -0.000008 0.000044 -45.806511 0.000019 0.000026 -31.866785 0.000014 -0.000003 -0.000040 53.120617 0.072955 -8.652160 36.754936 -0.164276 0.666837 36.845215 -0.135373 0.543555 -0.000007 0.000038 -0.000025 50.785740 0.020773 -7.234791 35.047485 -0.085785 0.262905 35.305988 -0.044692 0.198334 0.000018 0.000014 -0.000021 51.852226 -0.030732 -4.280166 35.768883 0.215433 -0.421139 35.957005 0.113173 -0.300888 -0.000032 0.000809 0.000001 51.190861 -0.016610 -2.133229 34.980389 0.601217 -1.291195 34.884209 0.388184 -0.968549 0.000179 0.000001 0.000021 0.000000 0.000000 0.000000 0.000000 0.000000 0.000000 -84.691841 -1.135156 8.056804 -60.832169 16.298199 2.183692 -1.342113 -11.574760 48.540245 16.285309 -8.560002 -11.390374 -24.389395 1.731467 34.318134 0.000005 0.000026 -59.644001 0.000069 -0.000004 -41.650372 -0.001011 -0.000004 -0.000747 -80.330055 0.084064 -9.932096 -55.827724 0.112619 0.517794 -55.903458 0.144804 0.401144 0.000037 0.000848 0.000025 -78.902443 0.044285 -5.235277 -55.185970 0.019229 0.166891 -55.102318 0.031739 0.131673 -0.000531 -0.000037 -0.000075 -83.608566 -0.032309 1.150813 -58.547340 -0.037247 -0.282345 -58.437572 -0.050926 -0.167931 -0.000485 0.000016 0.000009 -83.923576 -0.008171 8.374915 -57.860954 -0.145567 -0.697106 -57.929958 -0.184703 -0.493737 -0.000431 0.000006 -0.000062 0.000000 0.000000 0.000000 0.000000 0.000000 0.000000 1.332068 -11.997988 6.265221 0.025678 -0.274104 7.397482 -5.339912 -9.353443 19.933016 -0.480312 0.605108 -19.240280 0.000000 0.000000 0.000000 0.000000 0.000000 0.000000 0.000000 0.000000 0.000000 8.984840 -3.995269 -1.560793 0.340724 0.912314 16.632147 -4.040926 2.017503 24.309641 0.517919 -0.740880 -25.126825 0.000000 0.000000 0.000000 0.000000 0.000000 0.000000 0.000000 0.000000 0.000000 
1.545814 88.809692 2.504124 -0.342889 -0.364167 -7.803263 4.104955 -0.929309 6.963640 1.374558 -0.476009 4.962332 -1.926460 -2.615695 2.131672 -1.228726 -1.242767 4.000472 -0.074199 0.316279 4.958017 -0.084853 0.860860 -2.476781 -1.162260 -1.288554 -16.691822 0.000000 0.000000 0.000000 86.885307 0.751711 10.018054 55.793205 -25.926485 2.268498 -0.022715 19.334177 41.131279 2.881185 9.233811 -3.280169 19.102709 -2.163354 36.438305 -0.000010 0.000042 -45.608494 0.000017 0.000027 -31.731127 0.000014 -0.000005 -0.000039 52.838726 0.082594 -8.594539 36.565815 -0.162847 0.608096 36.643898 -0.129731 0.493425 -0.000010 0.000035 -0.000024 50.613289 0.023810 -7.149617 34.932838 -0.083509 0.236422 35.196007 -0.041232 0.175304 0.000019 0.000044 -0.000020 52.016151 -0.037459 -4.231547 35.842728 0.209462 -0.372969 36.033566 0.105409 -0.264171 -0.000029 0.000953 0.000002 51.422539 -0.036056 -2.032636 35.176662 0.572126 -1.127802 35.069038 0.359285 -0.828960 0.000166 0.000001 0.000024 0.000000 0.000000 0.000000 0.000000 0.000000 0.000000 -84.439125 -1.186096 7.915919 -61.859161 16.081358 1.270351 -1.361476 -11.538703 48.215302 16.286245 -9.226482 -11.298922 -24.310514 1.740886 34.342220 0.000004 0.000026 -59.491287 0.000047 -0.000004 -41.547020 -0.000755 -0.000006 -0.000498 -79.887932 0.096274 -9.855351 -55.490433 0.117646 0.570045 -55.585743 0.151105 0.443375 0.000034 0.000925 0.000025 -78.504730 0.049173 -5.193695 -54.883713 0.020309 0.187875 -54.808876 0.035108 0.149333 -0.000815 -0.000038 -0.000074 -83.235832 -0.035214 1.098139 -58.332928 -0.038553 -0.312515 -58.208298 -0.054606 -0.189371 -0.000150 0.000016 0.000009 -83.567848 -0.035587 8.233182 -57.733276 -0.150179 -0.788906 -57.802372 -0.194813 -0.563574 -0.000580 0.000005 -0.000062 0.000000 0.000000 0.000000 0.000000 0.000000 0.000000 1.209863 -11.790328 6.366064 0.032742 -0.257361 7.425509 -5.322773 -9.360829 19.899313 -0.510973 0.594113 -19.209997 0.000000 0.000000 0.000000 0.000000 0.000000 0.000000 0.000000 0.000000 0.000000 8.799693 -4.012010 -1.232668 0.341027 0.913978 16.680737 -4.016636 2.113784 23.985474 0.524941 -0.755562 -25.099068 0.000000 0.000000 0.000000 0.000000 0.000000 0.000000 0.000000 0.000000 0.000000 
